<?xml version="1.0" standalone="no"?>
<!DOCTYPE svg PUBLIC "-//W3C//DTD SVG 1.0//EN" "http://www.w3.org/TR/2001/REC-SVG-20010904/DTD/svg10.dtd">
<svg xmlns="http://www.w3.org/2000/svg" xmlns:xlink="http://www.w3.org/1999/xlink" id="body_1" width="960" height="960">

<g transform="matrix(1.92 0 0 1.92 0 0)">
	<g transform="matrix(0.1 0 -0 -0.1 0 500)">
        <path d="M2285 3483C 1940 3410 1659 3194 1506 2883C 1466 2802 1426 2681 1411 2596C 1395 2508 1398 2285 1415 2193C 1494 1778 1801 1448 2215 1333C 2308 1307 2327 1305 2500 1306C 2668 1306 2694 1309 2780 1332C 2977 1387 3140 1482 3283 1626C 3498 1845 3599 2090 3600 2396C 3600 2703 3497 2960 3290 3169C 3123 3338 2921 3446 2700 3486C 2600 3504 2374 3502 2285 3483zM2684 3406C 3033 3339 3319 3104 3451 2775C 3546 2537 3543 2245 3444 2013C 3392 1893 3350 1825 3270 1732C 3129 1569 2957 1463 2735 1404C 2679 1389 2631 1385 2490 1386C 2328 1386 2308 1388 2225 1414C 1864 1525 1608 1786 1508 2147C 1489 2214 1486 2252 1486 2405C 1486 2573 1488 2591 1513 2675C 1563 2837 1637 2971 1743 3087C 1888 3245 2103 3365 2315 3405C 2410 3423 2592 3423 2684 3406z" stroke="none" fill="#000000" fill-rule="nonzero" />
        <path d="M2360 3096C 2096 3019 2025 2760 2205 2525C 2226 2498 2359 2338 2499 2170C 2640 2002 2761 1857 2768 1848C 2780 1833 2777 1827 2734 1801C 2665 1756 2601 1738 2512 1738C 2387 1738 2271 1785 2201 1865C 2161 1911 2150 1938 2142 2015C 2136 2063 2131 2075 2116 2078C 2077 2086 2070 2056 2070 1875C 2070 1694 2077 1664 2116 1672C 2132 1675 2135 1685 2138 1747L2138 1747L2141 1818L2173 1788C 2214 1751 2299 1707 2375 1685C 2419 1672 2459 1669 2540 1672C 2633 1676 2655 1680 2713 1708C 2920 1805 3002 2021 2905 2215C 2891 2243 2745 2424 2580 2619C 2415 2814 2280 2977 2280 2981C 2280 2984 2304 2998 2333 3010C 2410 3044 2536 3049 2611 3021C 2714 2982 2799 2884 2800 2805C 2800 2776 2815 2750 2831 2750C 2835 2750 2846 2757 2854 2766C 2867 2779 2870 2809 2870 2934C 2870 3096 2864 3116 2823 3108C 2809 3105 2804 3093 2802 3047L2802 3047L2799 2989L2760 3020C 2684 3080 2616 3103 2505 3106C 2443 3108 2388 3104 2360 3096zM2515 2585C 2673 2398 2815 2226 2830 2202C 2868 2144 2886 2048 2870 1989C 2863 1965 2851 1933 2844 1917L2844 1917L2829 1890L2558 2212C 2409 2390 2273 2553 2257 2575C 2184 2674 2157 2790 2189 2870C 2203 2905 2221 2933 2225 2928C 2227 2926 2357 2772 2515 2585z" stroke="none" fill="#000000" fill-rule="nonzero" />
	</g>
</g>
</svg>