<?xml version="1.0" standalone="no"?>
<!DOCTYPE svg PUBLIC "-//W3C//DTD SVG 20010904//EN"
 "http://www.w3.org/TR/2001/REC-SVG-20010904/DTD/svg10.dtd">
<svg version="1.0" xmlns="http://www.w3.org/2000/svg"
 width="500.000000pt" height="500.000000pt" viewBox="0 0 500.000000 500.000000"
 preserveAspectRatio="xMidYMid meet">
<metadata>
Created by potrace 1.16, written by Peter Selinger 2001-2019
</metadata>
<g transform="translate(0.000000,500.000000) scale(0.100000,-0.100000)"
fill="#000000" stroke="none">
<path d="M2322 3485 c-436 -79 -776 -389 -889 -810 -23 -87 -26 -121 -27 -255
-1 -171 10 -247 56 -380 160 -460 603 -761 1087 -737 562 27 1016 476 1048
1037 31 558 -368 1055 -922 1145 -109 18 -254 18 -353 0z m383 -79 c214 -46
379 -137 535 -296 133 -135 225 -306 266 -495 27 -124 24 -335 -5 -449 -100
-388 -374 -661 -771 -768 -60 -17 -105 -21 -230 -21 -135 0 -168 4 -252 26
-368 97 -648 377 -744 743 -23 86 -27 120 -27 254 0 136 3 167 26 252 75 280
240 495 492 642 98 57 266 113 377 125 104 12 241 6 333 -13z"/>
<path d="M2402 3099 c-112 -19 -209 -83 -257 -170 -27 -48 -30 -63 -30 -140 0
-142 27 -186 380 -604 l295 -350 -32 -28 c-76 -65 -238 -94 -355 -63 -80 20
-133 47 -184 93 -54 49 -71 85 -78 163 -6 61 -7 65 -31 65 l-25 0 -3 -186 c-2
-157 0 -188 13 -199 29 -24 45 5 45 80 l0 68 38 -35 c20 -19 69 -50 109 -69
135 -65 300 -69 430 -9 71 32 157 115 190 184 24 48 28 68 28 146 0 139 -12
158 -365 575 -165 195 -300 358 -300 361 0 14 93 49 159 60 115 19 217 -10
298 -84 51 -47 73 -89 73 -140 0 -38 21 -63 45 -53 13 5 15 29 13 168 l-3 163
-25 0 c-23 0 -25 -4 -28 -57 l-3 -57 -47 36 c-103 79 -214 105 -350 82z m128
-522 c157 -186 298 -360 314 -388 48 -84 47 -211 -1 -286 -14 -22 -23 -13
-260 270 -321 381 -346 412 -377 475 -45 89 -47 192 -5 262 18 29 23 32 33 19
6 -8 139 -167 296 -352z"/>
</g>
</svg>
